<svg preserveAspectRatio="none" overflow="visible" style="display: block;" width="16" height="16" viewBox="0 0 16 16" fill="none" xmlns="http://www.w3.org/2000/svg">
<g id="pin">
<path id="Icon" d="M2.61451 12.363C2.39922 12.5802 2.21414 12.805 2.05925 13.0374C1.90441 13.2698 1.7826 13.488 1.69383 13.6918C1.60505 13.8957 1.54651 14.0671 1.51819 14.2062C1.48988 14.3453 1.49461 14.4338 1.53239 14.4719C1.56638 14.5062 1.6523 14.5091 1.79015 14.4805C1.928 14.452 2.09797 14.3929 2.30006 14.3034C2.50215 14.2138 2.71839 14.0909 2.94878 13.9347C3.17921 13.7785 3.40207 13.5918 3.61735 13.3746L5.96019 11.0113L8.93247 14.0097C9.06194 14.1403 9.23754 14.2137 9.42063 14.2137C9.60373 14.2137 9.77932 14.1403 9.90876 14.0096C10.4717 13.4416 10.777 12.7807 10.8134 12.0546C10.8427 11.4709 10.6961 10.8927 10.4415 10.3361L12.4711 6.64265L13.7104 6.82445C14.0047 6.86763 14.2934 6.71577 14.4267 6.44758C14.5601 6.1794 14.5081 5.8552 14.2978 5.64304L10.3933 1.70399C10.1831 1.49198 9.86204 1.43947 9.59625 1.57363C9.33047 1.70778 9.17964 1.99849 9.22187 2.29526L9.39938 3.54294L5.72705 5.60148C5.16018 5.35613 4.58628 5.20412 4.01192 5.22991C3.29567 5.26207 2.65966 5.56646 2.09931 6.13192C1.82982 6.40387 1.82987 6.84468 2.0994 7.11657L4.95737 9.99967L2.61451 12.363Z" fill="currentColor"/>
</g>
</svg>
